<mxfile host="app.diagrams.net" modified="2023-07-19T11:59:07.117Z" agent="Mozilla/5.0 (Windows NT 10.0; Win64; x64) AppleWebKit/537.36 (KHTML, like Gecko) Chrome/114.0.0.0 Safari/537.36" version="21.6.3" etag="4uc7VHRwmhDFBHM6qS0W" type="github">
  <diagram name="第 1 页" id="opMcNLXix2YyCR2Hme2i">
    <mxGraphModel>
      <root>
        <mxCell id="0" />
        <mxCell id="1" parent="0" />
      </root>
    </mxGraphModel>
  </diagram>
</mxfile>
